# xmcd
#
# Track frame offsets:
#	150
#	30059
#	39694
#	51245
#	72136
#	84748
#	99113
#	112122
#	129613
#	142292
#	173641
#	187471
#	215545
#	227355
#
# Disc length: 3259 seconds
#
# Revision: 1
# Processed by: cddbd v1.5.2PL0 Copyright (c) Steve Scherf et al.
# Submitted via: EZCDAudioConverter 2.1.7.1
#
DISCID=c60cb90e
DTITLE=Tamam Shud - Evolution
DYEAR=1900
DGENRE=
TTITLE0=Music Train/Evolution
TTITLE1=I'm No One
TTITLE2=Mr. Strange
TTITLE3=Lady Sunshine
TTITLE4=Falling Up
TTITLE5=Feel Free
TTITLE6=It's A Beautiful Day
TTITLE7=Jesus Guide Me
TTITLE8=Rock On Top
TTITLE9=Slow One And The Fast One
TTITLE10=Too Many Life
TTITLE11=Bali Waters
TTITLE12=Got A Feeling
TTITLE13=My Father Told Me
EXTD=
EXTT0=
EXTT1=
EXTT2=
EXTT3=
EXTT4=
EXTT5=
EXTT6=
EXTT7=
EXTT8=
EXTT9=
EXTT10=
EXTT11=
EXTT12=
EXTT13=
PLAYORDER=
